<?xml version="1.0" standalone="no"?><?xml-stylesheet type="text/css" href="https://wps.processon.com/themes/default/wps/mind/icons/icons.css" ?><!DOCTYPE svg PUBLIC "-//W3C//DTD SVG 1.1//EN" "http://www.w3.org/Graphics/SVG/1.1/DTD/svg11.dtd"><svg id="SvgjsSvg1006" width="417" height="445" xmlns="http://www.w3.org/2000/svg" version="1.1" xmlns:xlink="http://www.w3.org/1999/xlink" xmlns:svgjs="http://svgjs.com/svgjs"><defs id="SvgjsDefs1007"><pattern patternUnits="userSpaceOnUse" id="pattern_mark_0" width="300" height="300"><text x="150" y="100" fill="rgba(229,229,229,0.8)" font-size="18" transform="rotate(-45, 150, 150)" style="dominant-baseline: middle; text-anchor: middle;"></text></pattern><pattern patternUnits="userSpaceOnUse" id="pattern_mark_1" width="300" height="300"><text x="150" y="200" fill="rgba(229,229,229,0.8)" font-size="18" transform="rotate(-45, 150, 150)" style="dominant-baseline: middle; text-anchor: middle;"></text></pattern><marker id="SvgjsMarker1019" markerWidth="13" markerHeight="9" refX="9.5" refY="4.5" viewBox="0 0 13 9" orient="auto" markerUnits="userSpaceOnUse" stroke-dasharray="0,0"><path id="SvgjsPath1020" d="M0,0 L13,4.5 L0,9 L0,0" fill="#323232" stroke="#323232" stroke-width="1"></path></marker><marker id="SvgjsMarker1031" markerWidth="13" markerHeight="9" refX="9.5" refY="4.5" viewBox="0 0 13 9" orient="auto" markerUnits="userSpaceOnUse" stroke-dasharray="0,0"><path id="SvgjsPath1032" d="M0,0 L13,4.5 L0,9 L0,0" fill="#323232" stroke="#323232" stroke-width="1"></path></marker><marker id="SvgjsMarker1069" markerWidth="13" markerHeight="9" refX="9.5" refY="4.5" viewBox="0 0 13 9" orient="auto" markerUnits="userSpaceOnUse" stroke-dasharray="0,0"><path id="SvgjsPath1070" d="M0,0 L13,4.5 L0,9 L0,0" fill="#323232" stroke="#323232" stroke-width="1"></path></marker><marker id="SvgjsMarker1073" markerWidth="13" markerHeight="9" refX="9.5" refY="4.5" viewBox="0 0 13 9" orient="auto" markerUnits="userSpaceOnUse" stroke-dasharray="0,0"><path id="SvgjsPath1074" d="M0,0 L13,4.5 L0,9 L0,0" fill="#323232" stroke="#323232" stroke-width="1"></path></marker><marker id="SvgjsMarker1077" markerWidth="13" markerHeight="9" refX="9.5" refY="4.5" viewBox="0 0 13 9" orient="auto" markerUnits="userSpaceOnUse" stroke-dasharray="0,0"><path id="SvgjsPath1078" d="M0,0 L13,4.5 L0,9 L0,0" fill="#323232" stroke="#323232" stroke-width="1"></path></marker><marker id="SvgjsMarker1081" markerWidth="13" markerHeight="9" refX="9.5" refY="4.5" viewBox="0 0 13 9" orient="auto" markerUnits="userSpaceOnUse" stroke-dasharray="0,0"><path id="SvgjsPath1082" d="M0,0 L13,4.5 L0,9 L0,0" fill="#323232" stroke="#323232" stroke-width="1"></path></marker></defs><rect id="svgbackgroundid" width="417" height="445" fill="transparent"></rect><rect id="SvgjsRect1009" width="417" height="445" fill="url(#pattern_mark_0)"></rect><rect id="SvgjsRect1010" width="417" height="445" fill="url(#pattern_mark_1)"></rect><g id="SvgjsG1011" transform="translate(174,131)"><path id="SvgjsPath1012" d="M 13.333333333333334 0L 86.66666666666667 0C 104.44444444444444 0 104.44444444444444 40 86.66666666666667 40L 13.333333333333334 40C -4.444444444444445 40 -4.444444444444445 0 13.333333333333334 0Z" stroke-dasharray="10,6" stroke="rgba(123,209,68,1)" stroke-width="1.5" fill-opacity="1" fill="#ffffff"></path><g id="SvgjsG1013"><text id="SvgjsText1014" font-family="苍耳与墨" text-anchor="middle" font-size="13px" width="80px" fill="#323232" font-weight="400" align="middle" lineHeight="125%" anchor="middle" family="苍耳与墨" size="13px" weight="400" font-style="" opacity="1" y="9.375" transform="rotate(0)"><tspan id="SvgjsTspan1015" dy="16.25" x="50"><tspan id="SvgjsTspan1016" style="">volume1</tspan></tspan></text></g></g><g id="SvgjsG1017"><path id="SvgjsPath1018" d="M224 171.75L224 187L224 187L224 200.3" stroke="#323232" stroke-width="1.5" fill="none" marker-end="url(#SvgjsMarker1019)"></path></g><g id="SvgjsG1021" transform="translate(174,203)"><path id="SvgjsPath1022" d="M 13.666666666666666 0L 86.33333333333333 0C 104.55555555555556 0 104.55555555555556 41 86.33333333333333 41L 13.666666666666666 41C -4.555555555555555 41 -4.555555555555555 0 13.666666666666666 0Z" stroke="rgba(33,41,48,1)" stroke-width="1.5" fill-opacity="1" fill="#ed9745"></path><g id="SvgjsG1023"><text id="SvgjsText1024" font-family="苍耳与墨" text-anchor="middle" font-size="13px" width="80px" fill="#ffffff" font-weight="700" align="middle" lineHeight="125%" anchor="middle" family="苍耳与墨" size="13px" weight="700" font-style="" opacity="1" y="1.375" transform="rotate(0)"><tspan id="SvgjsTspan1025" dy="16.25" x="50"><tspan id="SvgjsTspan1026" style="">共享文件夹</tspan></tspan><tspan id="SvgjsTspan1027" dy="16.25" x="50"><tspan id="SvgjsTspan1028" style="">Media</tspan></tspan></text></g></g><g id="SvgjsG1029"><path id="SvgjsPath1030" d="M224 244.75L224 263.5L141 263.5L141 280.3" stroke="#323232" stroke-width="1.5" fill="none" marker-end="url(#SvgjsMarker1031)"></path></g><g id="SvgjsG1033" transform="translate(93,283)"><path id="SvgjsPath1034" d="M 0 0L 96 0L 96 42L 0 42Z" stroke="rgba(33,41,48,1)" stroke-width="1.5" fill-opacity="1" fill="#4ccbcd"></path><g id="SvgjsG1035"><text id="SvgjsText1036" font-family="苍耳与墨" text-anchor="middle" font-size="13px" width="76px" fill="#ffffff" font-weight="700" align="middle" lineHeight="125%" anchor="middle" family="苍耳与墨" size="13px" weight="700" font-style="" opacity="1" y="1.875" transform="rotate(0)"><tspan id="SvgjsTspan1037" dy="16.25" x="48"><tspan id="SvgjsTspan1038" style="">下载文件夹</tspan></tspan><tspan id="SvgjsTspan1039" dy="16.25" x="48"><tspan id="SvgjsTspan1040" style="">Downloads</tspan></tspan></text></g></g><g id="SvgjsG1041" transform="translate(32,361)"><path id="SvgjsPath1042" d="M 0 29.5C 0 -9.833333333333334 60.55555555555556 -9.833333333333334 60.55555555555556 29.5C 60.55555555555556 68.83333333333333 0 68.83333333333333 0 29.5Z" stroke="rgba(33,41,48,1)" stroke-width="1.5" fill-opacity="1" fill="#a6aef3"></path><g id="SvgjsG1043"><text id="SvgjsText1044" font-family="苍耳与墨" text-anchor="middle" font-size="13px" width="41px" fill="#ffffff" font-weight="700" align="middle" lineHeight="125%" anchor="middle" family="苍耳与墨" size="13px" weight="700" font-style="" opacity="1" y="18.875" transform="rotate(0)"><tspan id="SvgjsTspan1045" dy="16.25" x="30.5"><tspan id="SvgjsTspan1046" style="">电影</tspan></tspan></text></g></g><g id="SvgjsG1047" transform="translate(110.72222222222217,361)"><path id="SvgjsPath1048" d="M 0 29.5C 0 -9.833333333333334 60.55555555555556 -9.833333333333334 60.55555555555556 29.5C 60.55555555555556 68.83333333333333 0 68.83333333333333 0 29.5Z" stroke="rgba(33,41,48,1)" stroke-width="1.5" fill-opacity="1" fill="#7bd144"></path><g id="SvgjsG1049"><text id="SvgjsText1050" font-family="苍耳与墨" text-anchor="middle" font-size="13px" width="41px" fill="#ffffff" font-weight="700" align="middle" lineHeight="125%" anchor="middle" family="苍耳与墨" size="13px" weight="700" font-style="" opacity="1" y="18.875" transform="rotate(0)"><tspan id="SvgjsTspan1051" dy="16.25" x="30.5"><tspan id="SvgjsTspan1052" style="">电视剧</tspan></tspan></text></g></g><g id="SvgjsG1053" transform="translate(189.44444444444446,361)"><path id="SvgjsPath1054" d="M 0 29.5C 0 -9.833333333333334 60.55555555555556 -9.833333333333334 60.55555555555556 29.5C 60.55555555555556 68.83333333333333 0 68.83333333333333 0 29.5Z" stroke="rgba(33,41,48,1)" stroke-width="1.5" fill-opacity="1" fill="#f199c8"></path><g id="SvgjsG1055"><text id="SvgjsText1056" font-family="苍耳与墨" text-anchor="middle" font-size="13px" width="41px" fill="#ffffff" font-weight="700" align="middle" lineHeight="125%" anchor="middle" family="苍耳与墨" size="13px" weight="700" font-style="" opacity="1" y="18.875" transform="rotate(0)"><tspan id="SvgjsTspan1057" dy="16.25" x="30.5"><tspan id="SvgjsTspan1058" style="">动漫</tspan></tspan></text></g></g><g id="SvgjsG1059" transform="translate(257,283)"><path id="SvgjsPath1060" d="M 0 0L 96 0L 96 42L 0 42Z" stroke="rgba(33,41,48,1)" stroke-width="1.5" fill-opacity="1" fill="#4ccbcd"></path><g id="SvgjsG1061"><text id="SvgjsText1062" font-family="苍耳与墨" text-anchor="middle" font-size="13px" width="76px" fill="#ffffff" font-weight="700" align="middle" lineHeight="125%" anchor="middle" family="苍耳与墨" size="13px" weight="700" font-style="" opacity="1" y="1.875" transform="rotate(0)"><tspan id="SvgjsTspan1063" dy="16.25" x="48"><tspan id="SvgjsTspan1064" style="">链接文件夹</tspan></tspan><tspan id="SvgjsTspan1065" dy="16.25" x="48"><tspan id="SvgjsTspan1066" style="">Links</tspan></tspan></text></g></g><g id="SvgjsG1067"><path id="SvgjsPath1068" d="M224 244.75L224 263.5L305 263.5L305 280.3" stroke="#323232" stroke-width="1.5" fill="none" marker-end="url(#SvgjsMarker1069)"></path></g><g id="SvgjsG1071"><path id="SvgjsPath1072" d="M141 325.75L141 343L141 343L141 358.3" stroke="#323232" stroke-width="1.5" fill="none" marker-end="url(#SvgjsMarker1073)"></path></g><g id="SvgjsG1075"><path id="SvgjsPath1076" d="M141 325.75L141 343L62.27777777777783 343L62.27777777777783 358.3" stroke="#323232" stroke-width="1.5" fill="none" marker-end="url(#SvgjsMarker1077)"></path></g><g id="SvgjsG1079"><path id="SvgjsPath1080" d="M141 325.75L141 343L219.72222222222229 343L219.72222222222229 358.3" stroke="#323232" stroke-width="1.5" fill="none" marker-end="url(#SvgjsMarker1081)"></path></g><g id="SvgjsG1083" transform="translate(56,66)"><path id="SvgjsPath1084" d="M 0 0L 336 0L 336 50L 0 50Z" stroke-dasharray="10,6" stroke="rgba(70,105,234,1)" stroke-width="1.5" fill-opacity="1" fill="#ffffff"></path><g id="SvgjsG1085"><text id="SvgjsText1086" font-family="微软雅黑" text-anchor="start" font-size="13px" width="316px" fill="#323232" font-weight="400" align="middle" lineHeight="125%" anchor="start" family="微软雅黑" size="13px" weight="400" font-style="" opacity="1" y="5.875" transform="rotate(0)"><tspan id="SvgjsTspan1087" dy="16.25" x="10"><tspan id="SvgjsTspan1088" style="">- DOWNLOAD_CATEGORY=false   #下载不自动分类</tspan></tspan><tspan id="SvgjsTspan1089" dy="16.25" x="10"><tspan id="SvgjsTspan1090" style="">- LIBRARY_CATEGORY=true           #媒体   自动分类</tspan></tspan></text></g></g><g id="SvgjsG1091" transform="translate(174,25)"><path id="SvgjsPath1092" d="M 0 0L 100 0L 100 40L 0 40Z" stroke="none" fill="none"></path><g id="SvgjsG1093"><text id="SvgjsText1094" font-family="苍耳与墨" text-anchor="middle" font-size="24px" width="100px" fill="#4669ea" font-weight="700" align="middle" lineHeight="125%" anchor="middle" family="苍耳与墨" size="24px" weight="700" font-style="" opacity="1" y="-1" transform="rotate(0)"><tspan id="SvgjsTspan1095" dy="30" x="50"><tspan id="SvgjsTspan1096" style="">方案一</tspan></tspan></text></g></g><g id="SvgjsG1097" transform="translate(25,95.5)"><path id="SvgjsPath1098" d="M 0 13C 0 -4.333333333333333 26 -4.333333333333333 26 13C 26 30.333333333333332 0 30.333333333333332 0 13Z" stroke="rgba(33,41,48,1)" stroke-width="1.5" fill-opacity="1" fill="#7bd144"></path><g id="SvgjsG1099"><text id="SvgjsText1100" font-family="微软雅黑" text-anchor="start" font-size="12px" width="6px" fill="#323232" font-weight="700" align="middle" lineHeight="125%" anchor="start" family="微软雅黑" size="12px" weight="700" font-style="" opacity="1" y="3" transform="rotate(0)"><tspan id="SvgjsTspan1101" dy="15" x="10"><tspan id="SvgjsTspan1102" style="fill: rgb(255, 255, 255);">√</tspan></tspan></text></g></g><g id="SvgjsG1103" transform="translate(25,65)"><path id="SvgjsPath1104" d="M 0 13C 0 -4.333333333333333 26 -4.333333333333333 26 13C 26 30.333333333333332 0 30.333333333333332 0 13Z" stroke="rgba(33,41,48,1)" stroke-width="1.5" fill-opacity="1" fill="#e74f4c"></path><g id="SvgjsG1105"><text id="SvgjsText1106" font-family="微软雅黑" text-anchor="start" font-size="12px" width="6px" fill="#323232" font-weight="700" align="middle" lineHeight="125%" anchor="start" family="微软雅黑" size="12px" weight="700" font-style="" opacity="1" y="3" transform="rotate(0)"><tspan id="SvgjsTspan1107" dy="15" x="10"><tspan id="SvgjsTspan1108" style="fill: rgb(255, 255, 255);">X</tspan></tspan></text></g></g><g id="normal_brand" transform="translate(143.5,246.5)"><text id="SvgjsText1110" font-family="Helvetica, Arial, sans-serif" style="transform:rotate(-30deg);opacity: 0.06; color:#000; font-family: Microsoft Yahei;"><tspan id="SvgjsTspan1111" font-size="26" dy="0" x="0"></tspan></text></g></svg>