<?xml version="1.0" standalone="no"?><?xml-stylesheet type="text/css" href="https://wps.processon.com/themes/default/wps/mind/icons/icons.css" ?><!DOCTYPE svg PUBLIC "-//W3C//DTD SVG 1.1//EN" "http://www.w3.org/Graphics/SVG/1.1/DTD/svg11.dtd"><svg id="SvgjsSvg1188" width="410" height="445" xmlns="http://www.w3.org/2000/svg" version="1.1" xmlns:xlink="http://www.w3.org/1999/xlink" xmlns:svgjs="http://svgjs.com/svgjs"><defs id="SvgjsDefs1189"><pattern patternUnits="userSpaceOnUse" id="pattern_mark_0" width="300" height="300"><text x="150" y="100" fill="rgba(229,229,229,0.8)" font-size="18" transform="rotate(-45, 150, 150)" style="dominant-baseline: middle; text-anchor: middle;"></text></pattern><pattern patternUnits="userSpaceOnUse" id="pattern_mark_1" width="300" height="300"><text x="150" y="200" fill="rgba(229,229,229,0.8)" font-size="18" transform="rotate(-45, 150, 150)" style="dominant-baseline: middle; text-anchor: middle;"></text></pattern><marker id="SvgjsMarker1201" markerWidth="13" markerHeight="9" refX="9.5" refY="4.5" viewBox="0 0 13 9" orient="auto" markerUnits="userSpaceOnUse" stroke-dasharray="0,0"><path id="SvgjsPath1202" d="M0,0 L13,4.5 L0,9 L0,0" fill="#323232" stroke="#323232" stroke-width="1"></path></marker><marker id="SvgjsMarker1213" markerWidth="13" markerHeight="9" refX="9.5" refY="4.5" viewBox="0 0 13 9" orient="auto" markerUnits="userSpaceOnUse" stroke-dasharray="0,0"><path id="SvgjsPath1214" d="M0,0 L13,4.5 L0,9 L0,0" fill="#323232" stroke="#323232" stroke-width="1"></path></marker><marker id="SvgjsMarker1251" markerWidth="13" markerHeight="9" refX="9.5" refY="4.5" viewBox="0 0 13 9" orient="auto" markerUnits="userSpaceOnUse" stroke-dasharray="0,0"><path id="SvgjsPath1252" d="M0,0 L13,4.5 L0,9 L0,0" fill="#323232" stroke="#323232" stroke-width="1"></path></marker><marker id="SvgjsMarker1255" markerWidth="13" markerHeight="9" refX="9.5" refY="4.5" viewBox="0 0 13 9" orient="auto" markerUnits="userSpaceOnUse" stroke-dasharray="0,0"><path id="SvgjsPath1256" d="M0,0 L13,4.5 L0,9 L0,0" fill="#323232" stroke="#323232" stroke-width="1"></path></marker><marker id="SvgjsMarker1259" markerWidth="13" markerHeight="9" refX="9.5" refY="4.5" viewBox="0 0 13 9" orient="auto" markerUnits="userSpaceOnUse" stroke-dasharray="0,0"><path id="SvgjsPath1260" d="M0,0 L13,4.5 L0,9 L0,0" fill="#323232" stroke="#323232" stroke-width="1"></path></marker><marker id="SvgjsMarker1263" markerWidth="13" markerHeight="9" refX="9.5" refY="4.5" viewBox="0 0 13 9" orient="auto" markerUnits="userSpaceOnUse" stroke-dasharray="0,0"><path id="SvgjsPath1264" d="M0,0 L13,4.5 L0,9 L0,0" fill="#323232" stroke="#323232" stroke-width="1"></path></marker></defs><rect id="svgbackgroundid" width="410" height="445" fill="transparent"></rect><rect id="SvgjsRect1191" width="410" height="445" fill="url(#pattern_mark_0)"></rect><rect id="SvgjsRect1192" width="410" height="445" fill="url(#pattern_mark_1)"></rect><g id="SvgjsG1193" transform="translate(167,131)"><path id="SvgjsPath1194" d="M 13.333333333333334 0L 86.66666666666667 0C 104.44444444444444 0 104.44444444444444 40 86.66666666666667 40L 13.333333333333334 40C -4.444444444444445 40 -4.444444444444445 0 13.333333333333334 0Z" stroke-dasharray="10,6" stroke="rgba(123,209,68,1)" stroke-width="1.5" fill-opacity="1" fill="#ffffff"></path><g id="SvgjsG1195"><text id="SvgjsText1196" font-family="苍耳与墨" text-anchor="middle" font-size="13px" width="80px" fill="#323232" font-weight="400" align="middle" lineHeight="125%" anchor="middle" family="苍耳与墨" size="13px" weight="400" font-style="" opacity="1" y="9.375" transform="rotate(0)"><tspan id="SvgjsTspan1197" dy="16.25" x="50"><tspan id="SvgjsTspan1198" style="">volume1</tspan></tspan></text></g></g><g id="SvgjsG1199"><path id="SvgjsPath1200" d="M217 171.75L217 187L217 187L217 200.3" stroke="#323232" stroke-width="1.5" fill="none" marker-end="url(#SvgjsMarker1201)"></path></g><g id="SvgjsG1203" transform="translate(167,203)"><path id="SvgjsPath1204" d="M 13.666666666666666 0L 86.33333333333333 0C 104.55555555555556 0 104.55555555555556 41 86.33333333333333 41L 13.666666666666666 41C -4.555555555555555 41 -4.555555555555555 0 13.666666666666666 0Z" stroke="rgba(33,41,48,1)" stroke-width="1.5" fill-opacity="1" fill="#ed9745"></path><g id="SvgjsG1205"><text id="SvgjsText1206" font-family="苍耳与墨" text-anchor="middle" font-size="13px" width="80px" fill="#ffffff" font-weight="700" align="middle" lineHeight="125%" anchor="middle" family="苍耳与墨" size="13px" weight="700" font-style="" opacity="1" y="1.375" transform="rotate(0)"><tspan id="SvgjsTspan1207" dy="16.25" x="50"><tspan id="SvgjsTspan1208" style="">共享文件夹</tspan></tspan><tspan id="SvgjsTspan1209" dy="16.25" x="50"><tspan id="SvgjsTspan1210" style="">Media</tspan></tspan></text></g></g><g id="SvgjsG1211"><path id="SvgjsPath1212" d="M217 244.75L217 263.5L134 263.5L134 280.3" stroke="#323232" stroke-width="1.5" fill="none" marker-end="url(#SvgjsMarker1213)"></path></g><g id="SvgjsG1215" transform="translate(86,283)"><path id="SvgjsPath1216" d="M 0 0L 96 0L 96 42L 0 42Z" stroke="rgba(33,41,48,1)" stroke-width="1.5" fill-opacity="1" fill="#4ccbcd"></path><g id="SvgjsG1217"><text id="SvgjsText1218" font-family="苍耳与墨" text-anchor="middle" font-size="13px" width="76px" fill="#ffffff" font-weight="700" align="middle" lineHeight="125%" anchor="middle" family="苍耳与墨" size="13px" weight="700" font-style="" opacity="1" y="1.875" transform="rotate(0)"><tspan id="SvgjsTspan1219" dy="16.25" x="48"><tspan id="SvgjsTspan1220" style="">下载文件夹</tspan></tspan><tspan id="SvgjsTspan1221" dy="16.25" x="48"><tspan id="SvgjsTspan1222" style="">Downloads</tspan></tspan></text></g></g><g id="SvgjsG1223" transform="translate(25,361)"><path id="SvgjsPath1224" d="M 0 29.5C 0 -9.833333333333334 60.55555555555556 -9.833333333333334 60.55555555555556 29.5C 60.55555555555556 68.83333333333333 0 68.83333333333333 0 29.5Z" stroke="rgba(33,41,48,1)" stroke-width="1.5" fill-opacity="1" fill="#a6aef3"></path><g id="SvgjsG1225"><text id="SvgjsText1226" font-family="苍耳与墨" text-anchor="middle" font-size="13px" width="41px" fill="#ffffff" font-weight="700" align="middle" lineHeight="125%" anchor="middle" family="苍耳与墨" size="13px" weight="700" font-style="" opacity="1" y="18.875" transform="rotate(0)"><tspan id="SvgjsTspan1227" dy="16.25" x="30.5"><tspan id="SvgjsTspan1228" style="">电影</tspan></tspan></text></g></g><g id="SvgjsG1229" transform="translate(103.72222222222217,361)"><path id="SvgjsPath1230" d="M 0 29.5C 0 -9.833333333333334 60.55555555555556 -9.833333333333334 60.55555555555556 29.5C 60.55555555555556 68.83333333333333 0 68.83333333333333 0 29.5Z" stroke="rgba(33,41,48,1)" stroke-width="1.5" fill-opacity="1" fill="#7bd144"></path><g id="SvgjsG1231"><text id="SvgjsText1232" font-family="苍耳与墨" text-anchor="middle" font-size="13px" width="41px" fill="#ffffff" font-weight="700" align="middle" lineHeight="125%" anchor="middle" family="苍耳与墨" size="13px" weight="700" font-style="" opacity="1" y="18.875" transform="rotate(0)"><tspan id="SvgjsTspan1233" dy="16.25" x="30.5"><tspan id="SvgjsTspan1234" style="">电视剧</tspan></tspan></text></g></g><g id="SvgjsG1235" transform="translate(182.44444444444446,361)"><path id="SvgjsPath1236" d="M 0 29.5C 0 -9.833333333333334 60.55555555555556 -9.833333333333334 60.55555555555556 29.5C 60.55555555555556 68.83333333333333 0 68.83333333333333 0 29.5Z" stroke="rgba(33,41,48,1)" stroke-width="1.5" fill-opacity="1" fill="#f199c8"></path><g id="SvgjsG1237"><text id="SvgjsText1238" font-family="苍耳与墨" text-anchor="middle" font-size="13px" width="41px" fill="#ffffff" font-weight="700" align="middle" lineHeight="125%" anchor="middle" family="苍耳与墨" size="13px" weight="700" font-style="" opacity="1" y="18.875" transform="rotate(0)"><tspan id="SvgjsTspan1239" dy="16.25" x="30.5"><tspan id="SvgjsTspan1240" style="">动漫</tspan></tspan></text></g></g><g id="SvgjsG1241" transform="translate(250,283)"><path id="SvgjsPath1242" d="M 0 0L 96 0L 96 42L 0 42Z" stroke="rgba(33,41,48,1)" stroke-width="1.5" fill-opacity="1" fill="#4ccbcd"></path><g id="SvgjsG1243"><text id="SvgjsText1244" font-family="苍耳与墨" text-anchor="middle" font-size="13px" width="76px" fill="#ffffff" font-weight="700" align="middle" lineHeight="125%" anchor="middle" family="苍耳与墨" size="13px" weight="700" font-style="" opacity="1" y="1.875" transform="rotate(0)"><tspan id="SvgjsTspan1245" dy="16.25" x="48"><tspan id="SvgjsTspan1246" style="">链接文件夹</tspan></tspan><tspan id="SvgjsTspan1247" dy="16.25" x="48"><tspan id="SvgjsTspan1248" style="">Links</tspan></tspan></text></g></g><g id="SvgjsG1249"><path id="SvgjsPath1250" d="M217 244.75L217 263.5L298 263.5L298 280.3" stroke="#323232" stroke-width="1.5" fill="none" marker-end="url(#SvgjsMarker1251)"></path></g><g id="SvgjsG1253"><path id="SvgjsPath1254" d="M134 325.75L134 343L134 343L134 358.3" stroke="#323232" stroke-width="1.5" fill="none" marker-end="url(#SvgjsMarker1255)"></path></g><g id="SvgjsG1257"><path id="SvgjsPath1258" d="M134 325.75L134 343L55.27777777777783 343L55.27777777777783 358.3" stroke="#323232" stroke-width="1.5" fill="none" marker-end="url(#SvgjsMarker1259)"></path></g><g id="SvgjsG1261"><path id="SvgjsPath1262" d="M134 325.75L134 343L212.72222222222229 343L212.72222222222229 358.3" stroke="#323232" stroke-width="1.5" fill="none" marker-end="url(#SvgjsMarker1263)"></path></g><g id="SvgjsG1265" transform="translate(49,66)"><path id="SvgjsPath1266" d="M 0 0L 336 0L 336 50L 0 50Z" stroke-dasharray="10,6" stroke="rgba(70,105,234,1)" stroke-width="1.5" fill-opacity="1" fill="#ffffff"></path><g id="SvgjsG1267"><text id="SvgjsText1268" font-family="微软雅黑" text-anchor="start" font-size="13px" width="316px" fill="#323232" font-weight="400" align="middle" lineHeight="125%" anchor="start" family="微软雅黑" size="13px" weight="400" font-style="" opacity="1" y="5.875" transform="rotate(0)"><tspan id="SvgjsTspan1269" dy="16.25" x="10"><tspan id="SvgjsTspan1270" style="">- DOWNLOAD_CATEGORY=false   #下载不自动分类</tspan></tspan><tspan id="SvgjsTspan1271" dy="16.25" x="10"><tspan id="SvgjsTspan1272" style="">- LIBRARY_CATEGORY=true           #媒体   自动分类</tspan></tspan></text></g></g><g id="SvgjsG1273" transform="translate(167,25)"><path id="SvgjsPath1274" d="M 0 0L 100 0L 100 40L 0 40Z" stroke="none" fill="none"></path><g id="SvgjsG1275"><text id="SvgjsText1276" font-family="苍耳与墨" text-anchor="middle" font-size="24px" width="100px" fill="#4669ea" font-weight="700" align="middle" lineHeight="125%" anchor="middle" family="苍耳与墨" size="24px" weight="700" font-style="" opacity="1" y="-1" transform="rotate(0)"><tspan id="SvgjsTspan1277" dy="30" x="50"><tspan id="SvgjsTspan1278" style="">方案一</tspan></tspan></text></g></g><g id="normal_brand" transform="translate(140,246.5)"><text id="SvgjsText1280" font-family="Helvetica, Arial, sans-serif" style="transform:rotate(-30deg);opacity: 0.06; color:#000; font-family: Microsoft Yahei;"><tspan id="SvgjsTspan1281" font-size="26" dy="0" x="0"></tspan></text></g></svg>